<svg width="329" height="331" viewBox="0 0 329 331" fill="none" xmlns="http://www.w3.org/2000/svg">
<g clip-path="url(#clip0_28_30)">
<path d="M329 165.5C329 256.903 255.351 331 164.5 331C73.6492 331 0 256.903 0 165.5C0 74.0969 73.6492 0 164.5 0C255.351 0 329 74.0969 329 165.5ZM27.0495 165.5C27.0495 241.873 88.5882 303.786 164.5 303.786C240.412 303.786 301.951 241.873 301.951 165.5C301.951 89.1267 240.412 27.2139 164.5 27.2139C88.5882 27.2139 27.0495 89.1267 27.0495 165.5Z" fill="white"/>
<path d="M164 0H152V304H164V0Z" fill="white"/>
<path d="M245.938 108L158 165.621L164.577 175.658L252.515 118.037L245.938 108Z" fill="white"/>
<path d="M260.295 203.233L157.538 181L155 192.729L257.758 214.961L260.295 203.233Z" fill="white"/>
<path d="M162.326 176.875C152.253 173.121 141.35 171.769 130.581 172.94C119.812 174.11 109.51 177.767 100.588 183.585C91.6661 189.404 84.3992 197.205 79.431 206.298C74.4628 215.391 71.9467 225.495 72.1057 235.714C72.2646 245.934 75.0936 255.954 80.3422 264.887C85.5907 273.82 93.0968 281.39 102.195 286.926C111.294 292.463 121.705 295.795 132.505 296.628C143.305 297.461 154.161 295.769 164.112 291.701L159.974 282.664C151.6 286.087 142.464 287.511 133.376 286.81C124.288 286.109 115.527 283.305 107.871 278.646C100.214 273.987 93.8979 267.616 89.4812 260.099C85.0646 252.582 82.6839 244.151 82.5502 235.551C82.4164 226.951 84.5337 218.449 88.7144 210.797C92.8952 203.146 99.0103 196.581 106.518 191.684C114.026 186.788 122.695 183.711 131.757 182.726C140.819 181.741 149.995 182.878 158.471 186.038L162.326 176.875Z" fill="white"/>
<path d="M154.946 73.4709C165.055 67.9442 176.534 65.0464 188.209 65.074C199.884 65.1015 211.336 68.0534 221.393 73.6276C231.45 79.2019 239.75 87.1983 245.446 96.799C251.142 106.4 254.028 117.26 253.81 128.268C253.591 139.277 250.276 150.039 244.202 159.453C238.129 168.868 229.516 176.596 219.244 181.848C208.972 187.101 197.411 189.688 185.742 189.346C174.073 189.004 162.717 185.744 152.833 179.901L158.394 171.552C166.711 176.469 176.268 179.211 186.087 179.499C195.906 179.787 205.635 177.61 214.279 173.19C222.922 168.771 230.17 162.267 235.281 154.345C240.392 146.423 243.182 137.367 243.366 128.103C243.55 118.839 241.121 109.701 236.328 101.622C231.535 93.5427 224.55 86.8137 216.087 82.123C207.624 77.4323 197.988 74.9483 188.163 74.9251C178.339 74.9019 168.679 77.3404 160.172 81.9911L154.946 73.4709Z" fill="white"/>
</g>
<defs>
<clipPath id="clip0_28_30">
<rect width="329" height="331" fill="white"/>
</clipPath>
</defs>
</svg>
